<svg preserveAspectRatio="none" width="100%" height="100%" overflow="visible" style="display: block;" viewBox="0 0 359 80" fill="none" xmlns="http://www.w3.org/2000/svg">
<g id="bracket">
<path id="Union" d="M29.4736 13.6846L58.9473 13.6846L58.9473 38.9473L164.211 38.9473V41.0527L58.9473 41.0527V66.3154L29.4736 66.3154L29.4736 80H0L0 77.8945H27.3682L27.3682 52.6319H0L0 50.5264L29.4736 50.5264V64.211H56.8418L56.8418 15.7891L29.4736 15.7891V29.4736L0 29.4736L0 27.3682L27.3682 27.3682L27.3682 2.10548L0 2.10548L0 1.43558e-05L29.4736 1.43558e-05V13.6846Z" fill="url(#paint0_linear_0_4)"/>
<path id="Union_2" d="M329.526 66.3154L300.053 66.3154L300.053 41.0527L194.789 41.0527L194.789 38.9473L300.053 38.9473L300.053 13.6846L329.526 13.6846L329.526 1.26821e-05L359 1.52588e-05L359 2.10548L331.632 2.10548L331.632 27.3682L359 27.3682L359 29.4736L329.526 29.4736L329.526 15.7891L302.158 15.7891L302.158 64.2109L329.526 64.211L329.526 50.5264L359 50.5264L359 52.6319L331.632 52.6318L331.632 77.8945L359 77.8945L359 80L329.526 80L329.526 66.3154Z" fill="url(#paint1_linear_0_4)"/>
</g>
<defs>
<linearGradient id="paint0_linear_0_4" x1="-1.22347e-06" y1="40" x2="164" y2="40" gradientUnits="userSpaceOnUse">
<stop stop-color="#28CC95" stop-opacity="0.48"/>
<stop offset="1" stop-color="#28CC95" stop-opacity="0"/>
</linearGradient>
<linearGradient id="paint1_linear_0_4" x1="359" y1="40" x2="195" y2="40" gradientUnits="userSpaceOnUse">
<stop stop-color="#28CC95" stop-opacity="0.48"/>
<stop offset="1" stop-color="#28CC95" stop-opacity="0"/>
</linearGradient>
</defs>
</svg>
