<svg width="200" height="200" viewBox="0 0 200 200" fill="none" xmlns="http://www.w3.org/2000/svg">
<rect width="200" height="200" rx="50" fill="white"/>
<path d="M76.5 144L76.25 139.25L83.875 137.5C84.0417 137.167 84.1667 136.333 84.25 135C84.4167 133.583 84.5 131.583 84.5 129C84.5833 126.417 84.625 123.125 84.625 119.125V95.625C84.625 91.5417 84.5833 88.2083 84.5 85.625C84.5 82.9583 84.4167 80.9583 84.25 79.625C84.1667 78.2083 84.0417 77.375 83.875 77.125L76.25 75.375L76.5 70.625H103.375L103.75 75.375L96 77.125C95.8333 77.375 95.6667 78.2083 95.5 79.625C95.4167 80.9583 95.3333 82.9583 95.25 85.625C95.25 88.2083 95.25 91.5417 95.25 95.625V119.125C95.25 123.125 95.25 126.417 95.25 129C95.3333 131.583 95.4167 133.583 95.5 135C95.6667 136.333 95.8333 137.167 96 137.5L103.75 139.25L103.375 144H76.5ZM31.5 144L31.125 139.25L38.875 137.5C39.0417 137.083 39.125 136.125 39.125 134.625C39.2083 133.125 39.25 131.083 39.25 128.5C39.3333 125.917 39.375 122.792 39.375 119.125V95.625C39.375 91.875 39.3333 88.7083 39.25 86.125C39.25 83.4583 39.2083 81.375 39.125 79.875C39.125 78.375 39.0417 77.4583 38.875 77.125L31.125 75.375L31.5 70.625H58.125L58.375 75.375L50.75 77.125C50.5833 77.375 50.4167 78.2083 50.25 79.625C50.1667 80.9583 50.0833 82.9583 50 85.625C50 88.2083 50 91.5417 50 95.625V119.125C50 123.125 50 126.417 50 129C50.0833 131.583 50.1667 133.583 50.25 135C50.4167 136.333 50.5833 137.167 50.75 137.5L58.375 139.25L58.125 144H31.5ZM48.5 110V102.625C50.1667 102.708 52.5833 102.792 55.75 102.875C59 102.958 62.9167 103 67.5 103C72 103 75.8333 102.958 79 102.875C82.1667 102.792 84.5 102.708 86 102.625V110C84.1667 109.833 81.7917 109.708 78.875 109.625C75.9583 109.542 72.1667 109.5 67.5 109.5C62.6667 109.5 58.75 109.542 55.75 109.625C52.75 109.708 50.3333 109.833 48.5 110ZM116 144L115.625 139.25L122.875 137.5C122.958 137.167 123.042 136.458 123.125 135.375C123.208 134.208 123.25 132.375 123.25 129.875C123.333 127.375 123.375 124 123.375 119.75L123.5 94.375C123.5 90.2083 123.458 86.9583 123.375 84.625C123.292 82.2083 123.208 80.4583 123.125 79.375C123.125 78.2083 123.083 77.5 123 77.25L115.25 75.375L115.625 70.625H142.25C150.5 70.625 156.917 72.4583 161.5 76.125C166.083 79.7083 168.375 84.9167 168.375 91.75C168.375 96.4167 167.167 100.458 164.75 103.875C162.417 107.292 159.25 109.958 155.25 111.875C151.25 113.708 146.792 114.625 141.875 114.625C140.042 114.625 138.292 114.542 136.625 114.375C135.042 114.125 133.542 113.875 132.125 113.625V106.875C134.042 107.458 135.708 107.875 137.125 108.125C138.625 108.375 140.083 108.5 141.5 108.5C146.417 108.5 150.25 107.292 153 104.875C155.75 102.375 157.125 98.5417 157.125 93.375C157.125 87.4583 155.583 83.125 152.5 80.375C149.417 77.5417 145.542 76.125 140.875 76.125H134.25C134.25 76.625 134.208 77.7917 134.125 79.625C134.125 81.4583 134.083 83.6667 134 86.25C134 88.75 134 91.4583 134 94.375L134.125 119.75C134.125 124 134.167 127.375 134.25 129.875C134.333 132.292 134.417 134.083 134.5 135.25C134.583 136.333 134.625 137.042 134.625 137.375L145 139L144.625 144H116Z" fill="#09C285"/>
</svg>
