<svg width="287" height="42" viewBox="0 0 287 42" fill="none" xmlns="http://www.w3.org/2000/svg">
<path d="M40.6907 9.99465C40.3479 9.54199 39.9732 9.12595 39.5661 8.73729C39.4563 8.61843 34.5367 3.70798 34.4225 3.59366C32.2417 1.29849 29.105 0 25.6394 0H9.20723C7.94533 0 6.83432 0.900713 6.56914 2.13973L0.058437 32.7957C-0.106158 33.5638 0.0812869 34.3457 0.565952 34.9448C0.671117 35.0728 5.93819 40.3352 6.06162 40.4405C6.54629 41.0348 7.26867 41.373 8.04591 41.373C8.55801 41.373 9.06094 41.2223 9.4953 40.9388L20.5553 33.7878H25.6624C33.0921 33.7878 40.476 28.201 42.4695 21.0638C43.6034 17.0128 42.954 12.9757 40.6862 9.99008L40.6907 9.99465Z" fill="#8000FF"/>
<path d="M25.6393 2.28613H9.20726C9.02439 2.28613 8.84606 2.43246 8.80948 2.61532L5.86505 16.4596C5.82847 16.6426 5.94278 16.7889 6.12565 16.7889C9.58675 16.7889 12.9838 13.9863 13.7199 10.5251L14.0719 8.87911H24.2404C27.3221 8.87911 29.2285 11.5355 28.2547 14.6811C27.4043 17.42 24.5147 19.4269 21.7624 19.4269H21.0583L22.0367 14.8229C22.0962 14.5531 21.8171 14.3976 21.5656 14.5576L11.4796 21.0774L12.3209 17.1182C12.3574 16.9351 12.2432 16.7889 12.0603 16.7889C8.59919 16.7889 5.20209 19.5914 4.46597 23.0526L2.29424 33.2714C2.23477 33.5412 2.51369 33.6964 2.76514 33.5364L14.3919 26.02H20.1756C26.49 26.02 33.0235 21.2649 34.7837 14.9647C36.7177 8.05614 32.4519 2.28613 25.6393 2.28613Z" fill="#FBF9FF"/>
<path d="M60.2218 33.2326V8.14666C60.2218 7.98017 60.3526 7.84937 60.5191 7.84937H72.9579C76.7931 7.84937 79.6652 8.58073 81.5737 10.0434C83.4822 11.5061 84.4337 13.7241 84.4337 16.697C84.4337 19.6699 83.4585 21.9236 81.5025 23.3861C79.5461 24.849 76.5553 25.5803 72.5298 25.5803H67.5651V33.2326C67.5651 33.3991 67.4343 33.5299 67.2678 33.5299H60.5191C60.3526 33.5299 60.2218 33.3991 60.2218 33.2326ZM72.3811 19.9314C74.0105 19.9314 75.1936 19.6758 75.9249 19.1585C76.6565 18.6413 77.0251 17.8089 77.0251 16.6612C77.0251 15.5136 76.6682 14.7527 75.9486 14.253C75.2294 13.7479 74.0639 13.498 72.4585 13.498H67.5651V19.9376H72.3873L72.3811 19.9314Z" fill="#FBF9FF"/>
<path d="M103.699 33.3871L98.6385 24.8311H92.7402V33.2384C92.7402 33.405 92.6094 33.5357 92.4429 33.5357H85.9141C85.7476 33.5357 85.6168 33.405 85.6168 33.2384V8.14666C85.6168 7.98017 85.7476 7.84937 85.9141 7.84937H98.7455C106.392 7.84937 110.221 10.6915 110.221 16.376C110.221 18.0763 109.847 19.4975 109.103 20.639C108.36 21.7808 107.219 22.6965 105.684 23.392L111.696 33.0839C111.821 33.28 111.678 33.5357 111.446 33.5357H103.948C103.841 33.5357 103.746 33.4824 103.693 33.3871H103.699ZM98.2816 19.3605C99.9111 19.3605 101.1 19.1228 101.843 18.6413C102.587 18.1595 102.961 17.3808 102.961 16.3044C102.961 15.2283 102.605 14.4908 101.903 14.0211C101.195 13.5515 100.012 13.3196 98.3591 13.3196H92.7461V19.3605H98.2878H98.2816Z" fill="#FBF9FF"/>
<path d="M112.974 33.2326V8.14666C112.974 7.98017 113.105 7.84937 113.271 7.84937H120.228C120.395 7.84937 120.525 7.98017 120.525 8.14666V33.2326C120.525 33.3991 120.395 33.5299 120.228 33.5299H113.271C113.105 33.5299 112.974 33.3991 112.974 33.2326Z" fill="#FBF9FF"/>
<path d="M122.785 33.2979L121.768 28.5174C121.739 28.3687 121.78 28.2142 121.887 28.1072L136.318 13.7479H122.083C121.893 13.7479 121.75 13.5753 121.792 13.391L122.922 8.08722C122.952 7.95047 123.07 7.84937 123.213 7.84937H144.607C144.749 7.84937 144.868 7.95047 144.898 8.08722L145.915 12.8677C145.944 13.0164 145.903 13.171 145.796 13.278L131.365 27.6374H145.6C145.79 27.6374 145.933 27.8098 145.891 27.9943L144.761 33.2979C144.732 33.4349 144.613 33.5357 144.47 33.5357H123.076C122.934 33.5357 122.815 33.4349 122.785 33.2979Z" fill="#FBF9FF"/>
<path d="M147.151 33.2326V8.14666C147.151 7.98017 147.282 7.84937 147.449 7.84937H168.914C169.056 7.84937 169.175 7.95047 169.205 8.08722L170.311 13.284C170.352 13.4683 170.21 13.6407 170.02 13.6407H154.56V17.5591H168.473C168.64 17.5591 168.771 17.6898 168.771 17.8564V23.053C168.771 23.2196 168.64 23.3503 168.473 23.3503H154.56V27.7386H170.02C170.21 27.7386 170.352 27.911 170.311 28.0955L169.205 33.2921C169.175 33.4287 169.056 33.5299 168.914 33.5299H147.449C147.282 33.5299 147.151 33.3991 147.151 33.2326Z" fill="#FBF9FF"/>
<path d="M171.578 33.2326V8.14666C171.578 7.98017 171.708 7.84937 171.875 7.84937H184.314C188.149 7.84937 191.021 8.58073 192.929 10.0434C194.838 11.5061 195.789 13.7241 195.789 16.697C195.789 19.6699 194.814 21.9236 192.858 23.3861C190.902 24.849 187.911 25.5803 183.885 25.5803H178.921V33.2326C178.921 33.3991 178.79 33.5299 178.623 33.5299H171.881C171.714 33.5299 171.583 33.3991 171.583 33.2326H171.578ZM183.737 19.9314C185.366 19.9314 186.549 19.6758 187.281 19.1585C188.012 18.6413 188.381 17.8089 188.381 16.6612C188.381 15.5136 188.024 14.7527 187.304 14.253C186.585 13.7479 185.42 13.498 183.814 13.498H178.921V19.9376H183.743L183.737 19.9314Z" fill="#FBF9FF"/>
<path d="M196.972 33.2326V8.14666C196.972 7.98017 197.103 7.84937 197.27 7.84937H204.227C204.393 7.84937 204.524 7.98017 204.524 8.14666V33.2326C204.524 33.3991 204.393 33.5299 204.227 33.5299H197.27C197.103 33.5299 196.972 33.3991 196.972 33.2326Z" fill="#FBF9FF"/>
<path d="M234.01 24.034C234.188 24.034 234.331 24.1947 234.307 24.373C233.915 27.4233 232.547 29.8077 230.21 31.5142C227.79 33.2861 224.55 34.1778 220.501 34.1778C217.48 34.1778 214.864 33.6488 212.658 32.5962C210.452 31.5438 208.745 29.9918 207.533 27.9584C206.32 25.9191 205.719 23.4989 205.719 20.6925C205.719 18.0287 206.308 15.68 207.479 13.6406C208.656 11.6011 210.351 10.0196 212.569 8.88979C214.786 7.76006 217.444 7.20117 220.536 7.20117C224.253 7.20117 227.22 7.95628 229.437 9.46658C231.572 10.9233 233.023 13.0876 233.796 15.9656C233.843 16.1439 233.718 16.3222 233.54 16.3401L226.56 17.1367C226.423 17.1546 226.298 17.0713 226.25 16.9406C225.793 15.6921 225.132 14.7764 224.258 14.1996C223.337 13.5871 222.082 13.2839 220.501 13.2839C218.318 13.2839 216.618 13.9381 215.393 15.2461C214.168 16.5541 213.556 18.3676 213.556 20.6925C213.556 23.0175 214.174 24.8664 215.411 26.1628C216.647 27.4591 218.39 28.1071 220.643 28.1071C222.391 28.1071 223.765 27.7801 224.764 27.1201C225.703 26.4959 226.339 25.5444 226.672 24.2718C226.708 24.141 226.821 24.046 226.958 24.046H234.016L234.01 24.034Z" fill="#FBF9FF"/>
<path d="M254.838 33.405L246.835 22.2326L243.095 25.5445V33.2326C243.095 33.3991 242.964 33.5299 242.798 33.5299H235.841C235.674 33.5299 235.544 33.3991 235.544 33.2326V8.14666C235.544 7.98017 235.674 7.84937 235.841 7.84937H242.798C242.964 7.84937 243.095 7.98017 243.095 8.14666V17.6303L253.584 7.92666C253.637 7.87314 253.709 7.84937 253.786 7.84937H261.825C262.098 7.84937 262.223 8.18234 262.027 8.36665L251.978 17.6007L263.216 33.066C263.359 33.2625 263.216 33.5357 262.978 33.5357H255.082C254.987 33.5357 254.898 33.4882 254.838 33.4108V33.405Z" fill="#FBF9FF"/>
<path d="M279.258 15.5614C279.134 15.5731 279.015 15.5019 278.961 15.3828C278.551 14.4791 277.956 13.8191 277.177 13.4029C276.339 12.9569 275.185 12.7369 273.723 12.7369C272.07 12.7369 270.815 12.9153 269.965 13.278C269.114 13.6348 268.686 14.1639 268.686 14.8597C268.686 15.5077 268.912 15.9895 269.37 16.2985C269.828 16.6079 270.714 16.8753 272.034 17.0893L277.576 17.9871C280.911 18.5164 283.313 19.4084 284.788 20.6689C286.263 21.9294 287 23.6834 287 25.9368C287 28.6481 285.906 30.6994 283.73 32.0849C281.548 33.4765 278.319 34.172 274.056 34.172C269.792 34.172 266.534 33.417 264.293 31.9066C262.134 30.45 260.88 28.2854 260.535 25.4078C260.511 25.2292 260.653 25.0747 260.832 25.0747H267.818C267.955 25.0747 268.068 25.17 268.104 25.3067C268.371 26.4127 268.954 27.2331 269.852 27.774C270.809 28.3511 272.213 28.6364 274.062 28.6364C275.786 28.6364 277.118 28.4224 278.051 27.9884C278.985 27.5541 279.455 26.9478 279.455 26.1508C279.455 25.5503 279.199 25.0868 278.681 24.7478C278.164 24.4147 277.272 24.1473 276 23.957L271.433 23.2732C267.908 22.744 265.333 21.8224 263.698 20.5023C262.068 19.1823 261.254 17.3746 261.254 15.0738C261.254 12.6061 262.384 10.6737 264.637 9.28232C266.891 7.89099 270.006 7.19531 273.99 7.19531C277.683 7.19531 280.543 7.83153 282.57 9.10397C284.508 10.3229 285.727 12.1304 286.233 14.5325C286.269 14.7049 286.144 14.8776 285.966 14.8893L279.276 15.5552L279.258 15.5614Z" fill="#FBF9FF"/>
</svg>
