<svg width="87" height="84" viewBox="0 0 87 84" fill="none" xmlns="http://www.w3.org/2000/svg">
<path d="M82.2983 20.2144C81.6047 19.299 80.8465 18.4575 80.0233 17.6715C79.8014 17.431 69.8516 7.49952 69.6202 7.26829C65.2094 2.62621 58.8656 0 51.8567 0H18.6219C16.0696 0 13.8226 1.82169 13.2862 4.3277L0.118191 66.3303C-0.21471 67.8838 0.164413 69.4652 1.14465 70.6766C1.35735 70.9353 12.0102 81.5792 12.2598 81.7917C13.24 82.9936 14.7011 83.6784 16.2731 83.6784C17.3088 83.6784 18.326 83.373 19.2045 82.7995L41.5738 68.3372H51.9028C66.9292 68.3372 81.8639 57.0369 85.8954 42.6018C88.1887 34.4092 86.8754 26.2437 82.2888 20.2052L82.2983 20.2144Z" fill="#8000FF"/>
<path d="M51.8561 4.62363H18.6218C18.2519 4.62363 17.8912 4.91954 17.8173 5.28943L11.862 33.29C11.7881 33.6599 12.0192 33.9558 12.3891 33.9558C19.3893 33.9558 26.26 28.2873 27.7488 21.2871L28.4608 17.9581H49.0265C55.259 17.9581 59.1154 23.3308 57.1458 29.6929C55.4259 35.2318 49.5817 39.2917 44.0144 39.2917H42.5905L44.5695 29.9794C44.6897 29.434 44.1257 29.1195 43.6173 29.4432L23.2176 42.6296L24.9191 34.6216C24.9931 34.2517 24.7619 33.9558 24.3921 33.9558C17.3919 33.9558 10.5212 39.6243 9.03242 46.6244L4.63997 67.292C4.51977 67.8377 5.08384 68.1519 5.59245 67.8282L29.1081 52.6261H40.8061C53.5765 52.6261 66.7907 43.0089 70.3505 30.2664C74.2625 16.2936 65.6349 4.62363 51.8561 4.62363Z" fill="#FBF9FF"/>
</svg>
